# xmcd CD database file
#
# Track frame offsets:
#	150
#	15835
#	32280
#	54656
#	68610
#
# Disc length: 1046 seconds
#
# Revision: 1
# Processed by: cddbd v1.4PL0 Copyright (c) Steve Scherf et al.
# Submitted via: CDex 1.40Release
#
DISCID=2c041405
DTITLE=Mark Sanders - Mark Sanders
DYEAR=2002
DGENRE=Country
TTITLE0=321
TTITLE1=The Ballad of Sherriff Johnson
TTITLE2=Couldn't Stay
TTITLE3=Mexico
TTITLE4=Don't Call Me (hidden track w/Randy Rogers)
EXTD=YEAR: 2002 ID3G: 2
EXTT0=
EXTT1=
EXTT2=
EXTT3=
EXTT4=
PLAYORDER=
